<svg width="108" height="32" viewBox="0 0 108 32" fill="none" xmlns="http://www.w3.org/2000/svg">
<g clip-path="url(#clip0_303_45303)">
<path d="M27.9407 8.88119L31.2805 12.8323L29.4267 14.2817L25.3747 9.37062V13.9562H22.915V0.434817L25.3747 0V8.78876L29.0802 3.82303L30.9148 5.09387L27.9407 8.88119Z" fill="white"/>
<path d="M32.6777 4.40511H34.421L34.7696 5.32936C35.1608 4.94286 35.6221 4.64458 36.1536 4.43242C36.6872 4.22026 37.2293 4.11523 37.7799 4.11523C38.9662 4.11523 39.7974 4.51854 40.2715 5.32936C40.6754 4.94286 41.1367 4.64458 41.6597 4.43242C42.1784 4.22026 42.7057 4.11523 43.2456 4.11523C44.2108 4.11523 44.9464 4.39461 45.4545 4.95756C45.9647 5.52051 46.2177 6.40695 46.2177 7.61478V13.9585H43.758V7.75971C43.758 7.21567 43.6453 6.82706 43.42 6.5918C43.1925 6.35444 42.7928 6.2368 42.2167 6.2368C41.9616 6.2368 41.6916 6.25991 41.411 6.31032C41.1304 6.35864 40.8838 6.42586 40.6775 6.50988V13.9606H38.22V7.76181C38.22 7.21777 38.1094 6.82916 37.8905 6.5939C37.6694 6.35654 37.2697 6.23891 36.6978 6.23891C36.4874 6.23891 36.228 6.26201 35.907 6.31242C35.5902 6.36074 35.333 6.42796 35.1353 6.51198V13.9627H32.6777V4.40511Z" fill="white"/>
<path d="M55.3416 5.52847C54.9249 5.52847 54.5019 5.59778 54.0767 5.73642C53.6494 5.87506 53.288 6.04731 52.9925 6.25316V12.6515C53.2603 12.7502 53.5409 12.8153 53.8258 12.851C54.1171 12.8867 54.3828 12.9056 54.6252 12.9056C55.6647 12.9056 56.4407 12.5654 56.9466 11.8806C57.4526 11.1979 57.7077 10.24 57.7077 9.007C57.7077 7.86009 57.527 6.99256 57.1571 6.4044C56.7915 5.82044 56.1877 5.52636 55.3416 5.52636M55.0121 14.1366C54.657 14.1366 54.3126 14.1177 53.9831 14.082C53.6536 14.0442 53.322 13.9664 52.9925 13.8446V17.634H51.4512V4.49499H52.5694L52.7905 5.25749C53.1583 4.97812 53.5898 4.74075 54.0852 4.5412C54.5805 4.34165 55.1311 4.24292 55.7455 4.24292C56.9573 4.24292 57.8459 4.66723 58.422 5.52006C58.9982 6.37289 59.2852 7.5345 59.2852 9.0091C59.2852 9.77161 59.1852 10.4648 58.9833 11.0929C58.7813 11.7209 58.4964 12.2629 58.1287 12.7145C57.763 13.1703 57.3144 13.519 56.7915 13.7669C56.2664 14.0126 55.6732 14.1387 55.0121 14.1387" fill="white"/>
<path d="M63.9261 12.8699C64.1472 12.8699 64.3832 12.8426 64.6341 12.788C64.8849 12.7334 65.1337 12.6578 65.3781 12.5612C65.6226 12.4645 65.8543 12.3511 66.0754 12.2188C66.2965 12.0864 66.4857 11.9394 66.6431 11.7839V9.50063H64.9189C64.0388 9.50063 63.3968 9.64767 62.995 9.94385C62.5911 10.24 62.387 10.6959 62.387 11.3113C62.387 11.8197 62.5209 12.2083 62.7824 12.4729C63.046 12.7376 63.4265 12.872 63.9283 12.872M60.9222 11.3848C60.9222 10.4039 61.2432 9.66868 61.8831 9.17294C62.5252 8.67721 63.4712 8.42934 64.7191 8.42934H66.6431V7.64793C66.6431 6.88753 66.4794 6.34769 66.1498 6.0263C65.8182 5.70701 65.3292 5.54737 64.6808 5.54737C64.228 5.54737 63.7646 5.60829 63.2862 5.73012C62.81 5.84985 62.3742 6.00109 61.9852 6.18174L61.5239 5.11255C62.0128 4.83738 62.5379 4.62102 63.0928 4.46978C63.6498 4.32064 64.1919 4.24292 64.7191 4.24292C65.8671 4.24292 66.7238 4.52229 67.2872 5.07684C67.8506 5.63139 68.1312 6.51363 68.1312 7.72356V13.958H66.9917L66.8089 12.9077C66.3305 13.2943 65.8097 13.5904 65.2399 13.7942C64.6723 14 64.1409 14.103 63.6519 14.103C62.7952 14.103 62.1276 13.8656 61.6429 13.3888C61.1582 12.9098 60.918 12.244 60.918 11.3848" fill="white"/>
<path d="M74.8215 5.69021C74.4325 5.69021 73.9967 5.75323 73.5226 5.88136C73.0421 6.00739 72.617 6.19224 72.2386 6.43381V13.9559H70.6973V4.49499H71.8155L72.0897 5.40243C72.3002 5.23229 72.5362 5.07894 72.7955 4.94031C73.0592 4.80167 73.3355 4.68194 73.6225 4.57901C73.9095 4.47608 74.2008 4.39416 74.492 4.33324C74.7875 4.27233 75.0724 4.24292 75.3551 4.24292C75.6379 4.24292 75.825 4.25972 75.961 4.29753L75.7399 5.80364C75.606 5.76793 75.4657 5.74062 75.319 5.72382C75.1723 5.70491 75.0065 5.69441 74.8215 5.69441" fill="white"/>
<path d="M83.387 4.13188L84.5988 5.02042L81.4248 8.93588L85.092 13.2672L83.8824 14.2104L79.6071 9.00939L83.387 4.13188ZM78.929 13.9562H77.3877V0.39708L78.929 0.0546875V13.9583V13.9562Z" fill="white"/>
</g>
<defs>
<clipPath id="clip0_303_45303">
<rect width="107.886" height="32" fill="white" transform="translate(0.0585938)"/>
</clipPath>
</defs>
</svg>
