<svg width="108" height="32" viewBox="0 0 108 32" fill="none" xmlns="http://www.w3.org/2000/svg">
<g clip-path="url(#clip0_303_45303)">
<path d="M107.944 25.0365L107.172 24.8076L105.667 29.0843L104.183 24.8076L103.384 25.0555L105.255 29.9225C104.974 30.5316 104.513 31.0757 103.962 31.5231L104.464 31.9999C105.244 31.4769 105.795 30.6661 106.218 29.5318L107.944 25.0344V25.0365ZM98.4729 29.9141H99.2828V25.9041C99.6591 25.694 100.276 25.505 100.699 25.505C101.5 25.505 101.779 25.8957 101.779 26.6666V29.9141H102.589V26.6561C102.589 25.4651 102.04 24.8076 100.911 24.8076C100.344 24.8076 99.6676 25.0555 99.1957 25.3789L99.0617 24.942H98.4729V29.9141ZM94.795 29.3448C94.2742 29.3448 93.9851 29.0486 93.9851 28.5256C93.9851 27.8786 94.3996 27.574 95.3159 27.574H96.2215V28.7734C95.8856 29.0969 95.2691 29.3448 94.795 29.3448ZM93.2134 28.5634C93.2134 29.4582 93.7533 29.9918 94.6505 29.9918C95.1607 29.9918 95.807 29.7628 96.3087 29.3637L96.4065 29.9162H97.0039V26.6414C97.0039 25.3831 96.4171 24.8118 95.2117 24.8118C94.6632 24.8118 94.0467 24.984 93.5344 25.2697L93.7746 25.8306C94.1892 25.6415 94.7185 25.4966 95.1926 25.4966C95.8665 25.4966 96.2237 25.8117 96.2237 26.6015V27.0111H95.2117C93.9107 27.0111 93.2155 27.5425 93.2155 28.5634M90.2902 25.4861C91.1767 25.4861 91.5339 26.1162 91.5339 27.3157C91.5339 28.6012 91.0045 29.3637 89.9139 29.3637C89.6546 29.3637 89.3357 29.3364 89.0551 29.2293V25.8684C89.3655 25.6583 89.8566 25.4861 90.2902 25.4861ZM90.1159 30.0107C91.4935 30.0107 92.363 28.9142 92.363 27.3157C92.363 25.7171 91.7762 24.8097 90.5028 24.8097C89.8651 24.8097 89.3357 25.047 88.9509 25.3432L88.8361 24.9441H88.2472V31.8487H89.0572V29.8594C89.4059 29.9834 89.7503 30.0107 90.118 30.0107M80.088 29.9141H80.898V25.8957C81.0425 25.8096 81.5527 25.505 82.1416 25.505C82.8538 25.505 83.0387 25.8957 83.0387 26.4481V29.9162H83.8487V25.944C84.1378 25.7234 84.6396 25.5071 85.0626 25.5071C85.8535 25.5071 85.9683 25.9356 85.9683 26.5742V29.9183H86.7867V26.4985C86.7867 25.3474 86.2574 24.8118 85.2731 24.8118C84.7437 24.8118 84.1634 24.9945 83.6446 25.4588C83.3938 25.0218 82.9707 24.8118 82.3542 24.8118C81.9397 24.8118 81.3699 24.9357 80.8129 25.3642L80.6769 24.9462H80.088V29.9183V29.9141ZM76.644 25.4672C77.5411 25.4672 78.0599 26.154 78.0599 27.4186C78.0599 28.6831 77.539 29.3532 76.644 29.3532C75.749 29.3532 75.2282 28.6873 75.2282 27.4186C75.2282 26.1498 75.749 25.4672 76.644 25.4672ZM76.644 24.8097C75.2452 24.8097 74.3884 25.7444 74.3884 27.4186C74.3884 29.0927 75.2388 30.0107 76.644 30.0107C78.0492 30.0107 78.8996 29.0864 78.8996 27.4186C78.8996 25.7507 78.0492 24.8097 76.644 24.8097ZM73.5742 25.2004C73.1682 24.9714 72.6197 24.8097 72.0308 24.8097C70.4597 24.8097 69.688 25.839 69.688 27.4186C69.688 28.9982 70.4682 30.0107 71.9819 30.0107C72.6473 30.0107 73.2553 29.8489 73.6699 29.6011L73.4466 29.0108C73.1001 29.1726 72.5708 29.3238 72.0776 29.3238C71.0762 29.3238 70.5256 28.7335 70.5256 27.4375C70.5256 26.0553 71.0848 25.484 72.0584 25.484C72.4836 25.484 72.9556 25.5995 73.3021 25.7696L73.5721 25.1983L73.5742 25.2004ZM67.4218 25.0386L66.6501 24.8097L65.1471 29.0864L63.6632 24.8097L62.8617 25.0576L64.7325 29.9246C64.454 30.5337 63.9906 31.0778 63.4421 31.5252L63.9438 32.002C64.724 31.479 65.2746 30.6682 65.6977 29.5339L67.4218 25.0365V25.0386ZM59.0266 25.5722H59.8557V28.2105C59.8557 29.4477 60.2702 30.0107 61.2057 30.0107C61.6967 30.0107 62.2176 29.8594 62.4493 29.7145L62.2559 29.1432C62.0348 29.2188 61.6967 29.3049 61.38 29.3049C60.8783 29.3049 60.6657 29.0087 60.6657 28.1622V25.5701H62.2665V24.942H60.6657V23.667L59.8557 23.8476V24.9441L59.0266 25.0576V25.5722ZM57.6618 23.8686L58.3357 23.1923L57.6618 22.5159L56.9963 23.1923L57.6618 23.8686ZM57.2578 29.9162H58.0572V24.9441H57.2578V29.9162ZM55.7293 22.6104L54.9193 22.791V29.9162H55.7293V22.6104ZM52.9784 23.8686L53.6523 23.1923L52.9784 22.5159L52.313 23.1923L52.9784 23.8686ZM52.5745 29.9162H53.3738V24.9441H52.5745V29.9162ZM49.224 25.4861C50.1297 25.4861 50.5059 26.0868 50.5059 27.2884C50.5059 28.7062 49.8894 29.3742 48.8477 29.3742C48.6458 29.3742 48.3269 29.3553 48.0293 29.2776V25.839C48.346 25.6184 48.818 25.4861 49.224 25.4861ZM48.954 30.0107C50.4485 30.0107 51.335 29.0003 51.335 27.2778C51.335 25.6961 50.6888 24.8097 49.4472 24.8097C48.9349 24.8097 48.4247 24.9714 48.0314 25.2571V22.6104L47.2214 22.791V29.7082C47.6253 29.8888 48.244 30.0128 48.9583 30.0128M43.7774 25.4693C44.6746 25.4693 45.1933 26.1561 45.1933 27.4207C45.1933 28.6852 44.6724 29.3553 43.7774 29.3553C42.8824 29.3553 42.3616 28.6894 42.3616 27.4207C42.3616 26.1519 42.8824 25.4693 43.7774 25.4693ZM43.7774 24.8118C42.3786 24.8118 41.5218 25.7465 41.5218 27.4207C41.5218 29.0948 42.3722 30.0128 43.7774 30.0128C45.1827 30.0128 46.033 29.0885 46.033 27.4207C46.033 25.7528 45.1827 24.8118 43.7774 24.8118ZM33.6517 29.9162H34.4617V25.8978C34.6063 25.8117 35.1165 25.5071 35.7053 25.5071C36.4197 25.5071 36.6025 25.8978 36.6025 26.4502V29.9183H37.4125V25.9461C37.7016 25.7255 38.2033 25.5092 38.6285 25.5092C39.4172 25.5092 39.5341 25.9377 39.5341 26.5763V29.9204H40.3526V26.5006C40.3526 25.3495 39.8232 24.8139 38.8389 24.8139C38.3096 24.8139 37.7292 24.9966 37.2105 25.4609C36.9596 25.0239 36.5366 24.8139 35.9201 24.8139C35.5055 24.8139 34.9358 24.9378 34.3788 25.3663L34.2427 24.9483H33.656V29.9204L33.6517 29.9162ZM28.8833 25.4693C29.7804 25.4693 30.3013 26.1561 30.3013 27.4207C30.3013 28.6852 29.7804 29.3553 28.8833 29.3553C27.9862 29.3553 27.4674 28.6894 27.4674 27.4207C27.4674 26.1519 27.9883 25.4693 28.8833 25.4693ZM28.8833 24.8118C27.4866 24.8118 26.6277 25.7465 26.6277 27.4207C26.6277 29.0948 27.4759 30.0128 28.8833 30.0128C30.2907 30.0128 31.1389 29.0885 31.1389 27.4207C31.1389 25.7528 30.2907 24.8118 28.8833 24.8118ZM23.12 29.3469C22.5991 29.3469 22.31 29.0507 22.31 28.5277C22.31 27.8807 22.7245 27.5761 23.6408 27.5761H24.5464V28.7756C24.2084 29.099 23.5919 29.3469 23.12 29.3469ZM21.5383 28.5655C21.5383 29.4603 22.0783 29.9939 22.9754 29.9939C23.4856 29.9939 24.1319 29.7649 24.6336 29.3658L24.7314 29.9183H25.3288V26.6435C25.3288 25.3852 24.7399 24.8139 23.5366 24.8139C22.986 24.8139 22.3695 24.9861 21.8593 25.2718L22.0995 25.8327C22.5141 25.6436 23.0455 25.4987 23.5154 25.4987C24.1914 25.4987 24.5464 25.8138 24.5464 26.6036V27.0132H23.5345C22.2335 27.0132 21.5383 27.5446 21.5383 28.5655ZM17.7116 22.6125L16.9017 22.7931V29.9183H17.7116V22.6125ZM18.0688 27.3178L20.3159 30.0506L20.9515 29.5549L19.0255 27.2799L20.6922 25.2214L20.0544 24.7551L18.0688 27.3178ZM13.1048 29.3469C12.5839 29.3469 12.2948 29.0507 12.2948 28.5277C12.2948 27.8807 12.7094 27.5761 13.6256 27.5761H14.5313V28.7756C14.1933 29.099 13.5767 29.3469 13.1048 29.3469ZM11.5231 28.5655C11.5231 29.4603 12.061 29.9939 12.9581 29.9939C13.4704 29.9939 14.1146 29.7649 14.6163 29.3658L14.712 29.9183H15.3115V26.6435C15.3115 25.3852 14.7226 24.8139 13.5193 24.8139C12.9687 24.8139 12.3522 24.9861 11.842 25.2718L12.0822 25.8327C12.4968 25.6436 13.0283 25.4987 13.4981 25.4987C14.1741 25.4987 14.5292 25.8138 14.5292 26.6036V27.0132H13.5172C12.2162 27.0132 11.521 27.5446 11.521 28.5655M7.69435 22.6125L6.88438 22.7931V29.9183H7.69435V22.6125ZM8.0515 27.3178L10.2986 30.0506L10.9342 29.5549L9.00816 27.2799L10.6749 25.2214L10.0371 24.7551L8.0515 27.3178ZM1.644 29.3469C1.12316 29.3469 0.834033 29.0507 0.834033 28.5277C0.834033 27.8807 1.24859 27.5761 2.16485 27.5761H3.07049V28.7756C2.73247 29.099 2.11596 29.3469 1.644 29.3469ZM0.0644531 28.5655C0.0644531 29.4603 0.604434 29.9939 1.50157 29.9939C2.01179 29.9939 2.65806 29.7649 3.15978 29.3658L3.25757 29.9183H3.85495V26.6435C3.85495 25.3852 3.26607 24.8139 2.06281 24.8139C1.5122 24.8139 0.89781 24.9861 0.385466 25.2718L0.625694 25.8327C1.04025 25.6436 1.57172 25.4987 2.04155 25.4987C2.71759 25.4987 3.07262 25.8138 3.07262 26.6036V27.0132H2.06068C0.759626 27.0132 0.0644531 27.5446 0.0644531 28.5655Z" fill="white"/>
<path d="M27.9407 8.88119L31.2805 12.8323L29.4267 14.2817L25.3747 9.37062V13.9562H22.915V0.434817L25.3747 0V8.78876L29.0802 3.82303L30.9148 5.09387L27.9407 8.88119Z" fill="white"/>
<path d="M32.6777 4.40511H34.421L34.7696 5.32936C35.1608 4.94286 35.6221 4.64458 36.1536 4.43242C36.6872 4.22026 37.2293 4.11523 37.7799 4.11523C38.9662 4.11523 39.7974 4.51854 40.2715 5.32936C40.6754 4.94286 41.1367 4.64458 41.6597 4.43242C42.1784 4.22026 42.7057 4.11523 43.2456 4.11523C44.2108 4.11523 44.9464 4.39461 45.4545 4.95756C45.9647 5.52051 46.2177 6.40695 46.2177 7.61478V13.9585H43.758V7.75971C43.758 7.21567 43.6453 6.82706 43.42 6.5918C43.1925 6.35444 42.7928 6.2368 42.2167 6.2368C41.9616 6.2368 41.6916 6.25991 41.411 6.31032C41.1304 6.35864 40.8838 6.42586 40.6775 6.50988V13.9606H38.22V7.76181C38.22 7.21777 38.1094 6.82916 37.8905 6.5939C37.6694 6.35654 37.2697 6.23891 36.6978 6.23891C36.4874 6.23891 36.228 6.26201 35.907 6.31242C35.5902 6.36074 35.333 6.42796 35.1353 6.51198V13.9627H32.6777V4.40511Z" fill="white"/>
<path d="M55.3416 5.52847C54.9249 5.52847 54.5019 5.59778 54.0767 5.73642C53.6494 5.87506 53.288 6.04731 52.9925 6.25316V12.6515C53.2603 12.7502 53.5409 12.8153 53.8258 12.851C54.1171 12.8867 54.3828 12.9056 54.6252 12.9056C55.6647 12.9056 56.4407 12.5654 56.9466 11.8806C57.4526 11.1979 57.7077 10.24 57.7077 9.007C57.7077 7.86009 57.527 6.99256 57.1571 6.4044C56.7915 5.82044 56.1877 5.52636 55.3416 5.52636M55.0121 14.1366C54.657 14.1366 54.3126 14.1177 53.9831 14.082C53.6536 14.0442 53.322 13.9664 52.9925 13.8446V17.634H51.4512V4.49499H52.5694L52.7905 5.25749C53.1583 4.97812 53.5898 4.74075 54.0852 4.5412C54.5805 4.34165 55.1311 4.24292 55.7455 4.24292C56.9573 4.24292 57.8459 4.66723 58.422 5.52006C58.9982 6.37289 59.2852 7.5345 59.2852 9.0091C59.2852 9.77161 59.1852 10.4648 58.9833 11.0929C58.7813 11.7209 58.4964 12.2629 58.1287 12.7145C57.763 13.1703 57.3144 13.519 56.7915 13.7669C56.2664 14.0126 55.6732 14.1387 55.0121 14.1387" fill="white"/>
<path d="M63.9261 12.8699C64.1472 12.8699 64.3832 12.8426 64.6341 12.788C64.8849 12.7334 65.1337 12.6578 65.3781 12.5612C65.6226 12.4645 65.8543 12.3511 66.0754 12.2188C66.2965 12.0864 66.4857 11.9394 66.6431 11.7839V9.50063H64.9189C64.0388 9.50063 63.3968 9.64767 62.995 9.94385C62.5911 10.24 62.387 10.6959 62.387 11.3113C62.387 11.8197 62.5209 12.2083 62.7824 12.4729C63.046 12.7376 63.4265 12.872 63.9283 12.872M60.9222 11.3848C60.9222 10.4039 61.2432 9.66868 61.8831 9.17294C62.5252 8.67721 63.4712 8.42934 64.7191 8.42934H66.6431V7.64793C66.6431 6.88753 66.4794 6.34769 66.1498 6.0263C65.8182 5.70701 65.3292 5.54737 64.6808 5.54737C64.228 5.54737 63.7646 5.60829 63.2862 5.73012C62.81 5.84985 62.3742 6.00109 61.9852 6.18174L61.5239 5.11255C62.0128 4.83738 62.5379 4.62102 63.0928 4.46978C63.6498 4.32064 64.1919 4.24292 64.7191 4.24292C65.8671 4.24292 66.7238 4.52229 67.2872 5.07684C67.8506 5.63139 68.1312 6.51363 68.1312 7.72356V13.958H66.9917L66.8089 12.9077C66.3305 13.2943 65.8097 13.5904 65.2399 13.7942C64.6723 14 64.1409 14.103 63.6519 14.103C62.7952 14.103 62.1276 13.8656 61.6429 13.3888C61.1582 12.9098 60.918 12.244 60.918 11.3848" fill="white"/>
<path d="M74.8215 5.69021C74.4325 5.69021 73.9967 5.75323 73.5226 5.88136C73.0421 6.00739 72.617 6.19224 72.2386 6.43381V13.9559H70.6973V4.49499H71.8155L72.0897 5.40243C72.3002 5.23229 72.5362 5.07894 72.7955 4.94031C73.0592 4.80167 73.3355 4.68194 73.6225 4.57901C73.9095 4.47608 74.2008 4.39416 74.492 4.33324C74.7875 4.27233 75.0724 4.24292 75.3551 4.24292C75.6379 4.24292 75.825 4.25972 75.961 4.29753L75.7399 5.80364C75.606 5.76793 75.4657 5.74062 75.319 5.72382C75.1723 5.70491 75.0065 5.69441 74.8215 5.69441" fill="white"/>
<path d="M83.387 4.13188L84.5988 5.02042L81.4248 8.93588L85.092 13.2672L83.8824 14.2104L79.6071 9.00939L83.387 4.13188ZM78.929 13.9562H77.3877V0.39708L78.929 0.0546875V13.9583V13.9562Z" fill="white"/>
</g>
<defs>
<clipPath id="clip0_303_45303">
<rect width="107.886" height="32" fill="white" transform="translate(0.0585938)"/>
</clipPath>
</defs>
</svg>
